<?xml version="1.0" encoding="UTF-8" standalone="no"?>
<!DOCTYPE svg PUBLIC "-//W3C//DTD SVG 1.1//EN" "http://www.w3.org/Graphics/SVG/1.1/DTD/svg11.dtd">
<!-- Created with Vectornator (http://vectornator.io/) -->
<svg height="100%" stroke-miterlimit="10" style="fill-rule:nonzero;clip-rule:evenodd;stroke-linecap:round;stroke-linejoin:round;" version="1.1" viewBox="0 0 30 20" width="100%" xml:space="preserve" xmlns="http://www.w3.org/2000/svg" xmlns:vectornator="http://vectornator.io" xmlns:xlink="http://www.w3.org/1999/xlink">
<defs/>
<clipPath id="LetterBeta">
<rect height="50" width="50" x="0" y="0"/>
</clipPath>
<g clip-path="url(#LetterBeta)" id="Layer-1" vectornator:layerName="Layer 1">
<path d="M23.0939 6.97848C23.0939 6.97848 23.9974 7.59164 24.4234 10.0767C24.8495 12.5618 23.3482 14.6218 21.1802 13.9982C21.1802 13.9982 20.3648 13.7941 19.795 12.8284L19.79 13.6961C19.79 13.6961 20.2516 14.3853 21.2385 14.6377C22.2253 14.89 23.6879 14.6786 24.5609 13.959C25.4339 13.2393 26.1093 12.0552 26.2555 10.7586C26.4018 9.46203 25.827 8.36835 25.7158 8.2265C25.6045 8.08465 25.1353 7.25732 23.7865 6.60529C23.7865 6.60529 24.7656 6.0922 25.2398 4.89459C25.714 3.69697 25.3155 2.38706 24.8146 1.80452C24.3137 1.22197 23.5731 0.833184 22.5039 0.650095C21.4347 0.467006 20.0137 0.726437 19.2195 1.56694C18.4253 2.40745 18.2073 2.98256 18.1906 4.8985L18.1938 15.7966C18.1938 15.7966 18.1065 17.8289 17.8241 18.7152L19.4516 18.7235C19.4516 18.7235 19.8026 17.5119 19.7993 15.7712C19.796 14.0305 19.7991 4.58043 19.7991 4.58043C19.7991 4.58043 19.854 2.24549 20.6533 1.68634C21.3331 1.21072 23.892 0.641467 23.7868 3.99005C23.7868 3.99005 23.7244 5.29179 23.09 6.35378C23.09 6.35378 20.9367 5.68932 20.9854 6.63194C21.034 7.57456 22.7774 7.06771 23.0939 6.97848Z" fill="#000000" fill-rule="nonzero" opacity="1" stroke="none"/>
<path d="M3.75254 1.23L3.75 1.58L4.36918 1.58C4.36918 1.58 5.62173 1.57896 5.62402 3.1622C5.6263 4.74544 5.62 12.4694 5.62 12.4694C5.62 12.4694 5.68928 14.0319 4.35538 14.1061C4.24461 14.1123 3.74823 14.11 3.74823 14.11L3.74699 14.46L7.5489 14.456L7.55 2.07196C7.55 2.07196 9.30482 1.62086 10.8022 2.05039C12.2996 2.47993 13.0911 3.69846 12.9855 4.92488C12.8799 6.1513 12.1564 6.68821 11.503 7.0262C10.8497 7.36419 8.34861 7.42131 7.51116 7.17288L7.51 8.08C7.51 8.08 10.1093 7.74671 11.5135 8.34929C12.9178 8.95186 13.2465 9.94352 13.3607 10.602C13.475 11.2604 13.3856 12.2362 12.312 13.1057C11.2384 13.9751 9.65064 13.9256 7.51 13.5083L7.51 14.46L10.2322 14.4563C10.2322 14.4563 12.7618 14.5353 14.1121 13.6229C15.4625 12.7104 15.6765 11.9504 15.7859 11.4874C15.8931 11.0339 15.9516 10.3386 15.1918 9.22878C14.432 8.11896 13.2476 7.8484 12.6516 7.71317C12.6516 7.71317 14.1149 7.31734 14.6654 6.17264C15.2159 5.02794 14.9731 4.05028 14.8973 3.8022C14.8216 3.55413 14.3581 2.37843 12.9429 1.75596C11.5278 1.13348 9.48249 1.23622 8.88553 1.23409C8.28856 1.23197 3.75254 1.23 3.75254 1.23Z" fill="#000000" fill-rule="nonzero" opacity="1" stroke="none"/>
</g>
</svg>
