<?xml version="1.0" encoding="UTF-8" standalone="no"?>
<!DOCTYPE svg PUBLIC "-//W3C//DTD SVG 1.1//EN" "http://www.w3.org/Graphics/SVG/1.1/DTD/svg11.dtd">
<!-- Created with Vectornator (http://vectornator.io/) -->
<svg height="100%" stroke-miterlimit="10" style="fill-rule:nonzero;clip-rule:evenodd;stroke-linecap:round;stroke-linejoin:round;" version="1.1" viewBox="0 0 133.925 174.438" width="100%" xml:space="preserve" xmlns="http://www.w3.org/2000/svg" xmlns:vectornator="http://vectornator.io" xmlns:xlink="http://www.w3.org/1999/xlink">
<defs/>
<clipPath id="Crest">
<rect height="174.438" width="133.925" x="0" y="0"/>
</clipPath>
<g clip-path="url(#Crest)" id="Layer-1" vectornator:layerName="Layer 1">
<path d="M108.809 56.688L114.23 49.818L112.639 49.498L117.289 43.498L115.519 43.498L121.519 35.098L109.279 36.538L110.159 34.498L97.999 38.458L106.399 38.218L105.678 39.898L115.038 38.698L110.238 46.618L112.398 46.858L109.288 51.998L110.718 52.138L108.809 56.688ZM133.2 105.958C133.76 110.479 133.86 115.629 133.2 120.118C131.95 125.898 129.97 130.958 127.2 135.238C133.679 138.328 130.52 149.868 131.28 158.038C120.509 167.629 97.429 161.009 84 165.958C83.9 167.778 84.24 170.038 83.76 171.479C75.72 175.409 58.75 175.539 51.12 171.239C50.43 169.929 50.86 167.499 50.4 165.959C35.69 161.989 14.64 167.31 3.84 159.48C2.12 154.79 3.21 147.54 2.88 141C3.42 139.49 3.72 139.11 4.32 137.881C5.26 137.381 6.26 136.941 6.96 136.2C3.85 129.39-0.31 122.35 0.48 112.44C-0.2 92.64 13.49 87.03 15.12 70.2C15.17 66.87 15.12 63.64 14.88 60.6C12.81 49.23 7.69 40.91 0 35.16C2 31.72 3.62 27.9 6.24 25.08C20.25 28.68 41.56 28.75 54.72 24.36C54.72 23.8 54.35 21.94 54.35 21.94L47.54 23.82L47.92 22.38L36.72 24.36L52.66 17.88L52.29 19.69L53.92 19.13L53.92 17.19L40.16 18.5L40.6 17.13L30.72 16.44L47.16 13.19L46.6 14.82L53.98 14.13L54.1 13.5L45.73 11.69L47.04 10.69L38.16 6.84L53.6 9L52.35 10.13L54.6 10.82L55.29 7.38L56.35 4.82L59.28 5.16L60.29 3.13L63.35 2.88L64.6 1.38L66.98 1.38L68.35 0L70.281 0.63C70.281 0.63 71.411 1.62 71.76 2.28C76.38-1.28 79.12 5.22 80.64 8.52C85.951 6.95 95.85 2.38 95.85 2.38L95.521 4.2L103.92 1.75L102.67 5.34L91.04 8.88L91.23 7.5L80.599 10.938L80.73 11.938L93.12 10.918L92.48 12.378L102.24 11.878L101.599 12.998L107.999 12.838L105.839 16.198L95.23 16.438L95.759 15.238L87.23 15.188L87.66 14.128L80.849 14.058L80.599 16.498L91.44 19.558L90.66 20.628L98.639 22.918L94.98 25.268L85.04 22.878L85.92 21.718L80.42 19.688C80.42 19.688 79.35 23.738 79.441 25.078C93.31 29.498 113.701 28.858 127.68 25.798C129.941 28.818 132.1 31.938 133.92 35.398C132.84 36.078 132 36.998 130.8 37.558C124.36 44.098 119.24 52.898 118.32 64.198C117.27 84.058 130.53 90.588 133.2 105.958ZM127.04 27.658C124.45 31.498 126.26 34.908 131.6 34.378C130.33 31.878 129.21 29.258 127.04 27.658ZM129.92 157.498C129.71 154.469 130.85 148.089 129.68 143.818C129.33 143.948 129.09 144.188 128.96 144.538C118.231 149.799 101.14 148.238 85.76 149.099C83.46 149.759 80.01 149.269 79.521 151.739C80.22 153.359 83.09 152.809 83.6 154.619C84.441 156.789 83.29 161.189 84.08 163.979C99.55 161.168 120.559 165.048 129.92 157.498ZM128 111.898C128.21 121.148 124.96 128.578 121.04 134.458C122.75 134.349 124.11 134.589 125.36 134.938C133.389 126.108 134.08 104.688 127.28 93.658C125.179 90.879 123.52 87.658 121.52 84.778C119.599 80.298 117.849 75.648 117.2 69.898C117.2 67.578 117.2 65.258 117.2 62.938C117.94 56.768 119.42 51.638 122.24 47.098C123.9 42.368 129.179 38.388 130.88 35.338C129.88 34.578 128.07 34.628 126.56 34.378C126.21 34.508 125.97 34.748 125.84 35.098C116.901 44.178 111.38 55.528 113.12 73.498C115.02 88.468 127.389 94.858 128 111.898ZM117.92 146.458C123.38 145.998 128.66 145.358 130.16 140.938C128.99 136.348 124.32 135.258 118.4 135.418C118.099 135.518 117.91 135.728 117.92 136.138C117.92 139.578 117.92 143.018 117.92 146.458ZM124.639 31.498C125.339 29.758 125.53 29.008 126.079 27.178C111.349 30.378 92.389 29.738 78.799 26.458C78.249 27.398 77.629 29.368 78.079 30.538C90.41 33.598 110.719 34.718 124.639 31.498ZM116.48 141.898C116.73 140.528 116.7 139.038 116.48 137.578C98.86 139.238 77.809 136.788 66.56 145.018C55.74 136.628 34.22 139.408 17.36 137.578C16.8 138.618 17.28 140.698 17.12 142.139C32.81 144.229 56.62 140.569 66.8 150.538C69.97 148.669 72.76 146.419 76.64 145.259C88.04 141.718 104.23 144.438 116.48 141.898ZM113.12 129.898C117.68 119.458 116.74 102.018 111.68 92.858C103.951 92.968 92.26 93.018 85.79 92.858C81.46 96.558 76.5 101.379 72.94 106.538C72.94 112.528 72.95 121.458 72.94 129.658C78.919 130.299 88.299 129.698 96.559 129.898C97.98 126.438 99.08 122.658 99.919 118.618C98.279 118.208 96.599 119.118 94.399 118.858C89.619 114.678 87.189 108.148 82.399 103.978C82.649 106.128 83.508 107.668 83.838 109.738C81.818 111.408 78.528 110.799 77.118 108.299C78.168 106.549 78.868 104.448 79.998 102.778C79.428 101.578 79.148 99.238 80.958 99.178C82.838 99.218 82.948 101.028 83.838 102.058C90.248 105.568 97.598 108.138 103.519 112.138C102.838 113.938 101.909 115.488 101.359 117.418C104.239 121.657 107.138 125.878 110.239 129.897C111.2 129.898 112.16 129.898 113.12 129.898ZM105.44 129.898C106.32 129.898 107.2 129.898 108.08 129.898C107.19 127.018 104.71 123.678 102.559 121.258C103.37 124.288 104.8 126.698 105.44 129.898ZM105.349 15.558L106.849 13.438L100.16 13.628L100.88 12.538L91.28 13.018L91.92 11.628L80.85 12.628L80.85 13.438L89.121 13.258L88.6 14.558L97.04 14.458L96.54 15.748L105.349 15.558ZM101.36 129.658C102.009 130.129 103.46 129.799 104.48 129.898C103.74 126.878 102.98 123.878 101.36 121.738C101.36 124.378 101.36 127.018 101.36 129.658ZM107.12 81.418C102.36 71.098 102.94 52.978 107.12 43.288C98.78 42.908 88.72 43.158 80.04 43.128C81.54 44.558 76.72 48.718 72.94 49.498C72.94 55.898 72.679 64.428 72.94 69.358C76.879 74.748 80.07 77.748 84.87 81.608C89.82 81.458 100.01 82.048 107.12 81.418ZM102.29 4.74801L102.96 2.51801L94.56 4.91801L94.981 3.43801L80.661 9.31801L80.791 10.248L92.161 6.35801L91.85 7.99801L102.29 4.74801ZM101.12 113.578C101.54 113.129 101.849 112.998 102.08 112.379C96.55 109.629 87 103.549 82.64 102.538C87.05 108.538 90.31 113.028 95.12 118.139C95.599 117.879 95.48 118.059 95.84 117.659C94.22 112.939 90.41 111.68 88.401 106.619C92.8 108.778 96.8 111.338 101.12 113.578ZM100.4 129.658C100.12 127.458 100.99 124.108 99.92 122.698C99.28 125.098 98.4 127.259 97.76 129.658C98.25 130.028 99.91 130.028 100.4 129.658ZM97.28 116.458C97.969 115.549 99.349 115.328 99.679 114.059C97.45 112.208 91.079 108.739 90.799 108.779C92.79 111.508 94.639 114.378 97.28 116.458ZM94.73 24.498L97.04 23.098L89.04 20.748L90.23 19.878L80.73 17.188L80.48 18.878L87.44 21.178L86.349 22.498L94.73 24.498ZM82.4 138.298L94.71 134.018L86.481 134.497L87.201 133.018L76.349 134.938L76.879 133.018C76.879 133.018 70.249 135.158 67.349 136.497C63.699 135.298 56.959 133.018 56.959 133.018L57.729 134.878L46.399 131.817L47.289 133.997L38.159 133.477L51.679 138.297L51.159 136.317L60.799 138.777L60.229 136.878L67.279 139.737L74.348 136.628L73.279 138.777L82.919 136.378L82.4 138.298ZM82.639 170.218C82.69 165.438 82.629 161.787 82.639 156.778C74.61 160.438 59.809 160.078 51.68 156.778C51.27 160.718 51.29 166.278 51.68 170.218C59.78 173.828 74.98 174.458 82.639 170.218ZM82.88 109.258C82.37 107.928 82.57 105.888 81.2 105.418C81.2 106.857 81.2 108.298 81.2 109.737C82.059 109.878 82.36 109.458 82.88 109.258ZM82.16 155.338C82.16 153.657 80.25 153.898 79.04 153.418C79.15 154.588 78.79 156.228 79.28 157.018C80.28 156.498 81.86 156.558 82.16 155.338ZM80.24 109.498C80.54 108.799 80.849 104.948 80 105.419C80 105.538 78.5 107.238 78.32 108.538C78.929 108.888 79.389 109.388 80.24 109.498ZM78.8 21.658C79.54 19.998 80.29 17.248 79.521 14.218C79.09 13.658 77.491 14.768 76.88 13.978C77.85 13.588 78.981 13.358 79.521 12.538C81.291 10.878 77.291-1.12199 72.291 2.99801C71.351 4.24801 70.641 5.09801 70.641 5.09801L71.351 7.81801L71.232 9.49801L73.761 14.698L72.732 16.748L70.482 16.748L69.351 18.558L66.921 18.748L65.851 21.058L62.601 20.378L62.101 19.318C62.101 19.318 57.481 20.748 55.281 21.658C55.751 24.468 56.171 27.088 57.601 28.938C64.7 26.518 71.66 24.188 78.8 21.658ZM66.74 112.278C72.37 102.558 82.87 92.018 91.349 87.388C81.999 82.398 72.579 72.688 66.74 62.628C61.53 72.528 51.58 82.648 42.26 87.388C50.8 91.808 60.69 102.238 66.74 112.278ZM78.08 24.058C78.6 23.378 78.75 23.128 78.6 22.438C71.731 24.878 64.85 27.248 57.79 29.558C57.79 30.248 57.73 30.318 57.92 30.778C65.1 28.438 71.42 26.358 78.08 24.058ZM76.639 28.378C76.98 27.438 78.27 25.748 78.349 24.628C72.289 26.688 64.16 29.318 57.979 31.438C57.979 32.398 58.159 33.658 58.159 34.618C64.6 32.558 70.5 30.478 76.639 28.378ZM79.52 44.028C77.33 41.268 76.179 34.798 76.04 31.498C70.1 33.438 64.35 35.498 58.29 37.498C58.23 40.478 56.66 41.878 55.48 43.998C56.29 45.878 59.59 47.668 62.48 48.058C63.43 44.928 63 40.418 67.52 40.858C70.19 41.948 70.95 44.948 70.64 49.018C75.01 48.668 77.74 46.968 79.52 44.028ZM76.16 30.778C76.42 30.438 76.73 29.818 76.48 29.188C70.419 31.128 64.73 32.988 58.35 35.248C58.35 35.648 58.29 36.478 58.29 36.878C64.92 34.628 70.12 32.738 76.16 30.778ZM72.92 14.438L70.66 9.49801L69.92 10.878L71.29 14.248L72.92 14.438ZM72.25 16.158L72.8 14.938L71.571 14.788L70.881 16.138L72.25 16.158ZM71.48 2.99801L70.29 1.43801L69.73 2.31801C69.73 2.31801 70.32 3.84801 70.54 4.24801L71.48 2.99801ZM69.599 10.378L70.349 9.12801L68.54 8.93801L68 10.138L69.599 10.378ZM70.23 8.55801L67.1 2.43801L66.35 4.18801L68.35 8.43801L70.23 8.55801ZM69.05 2.07801L69.68 1.01801L68.42 0.838007L67.76 1.97801L69.05 2.07801ZM69.04 17.938L69.6 16.628L67.73 16.498L67.29 17.878L69.04 17.938ZM69.44 15.898L67.29 11.318L66.23 13.248L67.52 15.898C67.52 15.898 69.44 15.898 69.44 15.898ZM65.85 12.558L66.85 10.938L64.98 10.878L64.4 12.538L65.85 12.558ZM65.84 3.89801L66.79 2.18801L65.04 1.99801L64.16 3.55801L65.84 3.89801ZM66.73 10.378L63.1 4.12801L62.29 5.99801L64.79 10.318L66.73 10.378ZM65.23 20.378L65.98 18.498L63.92 18.538L63.23 19.818L65.23 20.378ZM65.84 17.818L63.2 13.498L62.48 15.188L63.68 17.818L65.84 17.818ZM62.79 12.438L59.29 6.05801L58.29 7.99801L60.98 12.188L62.79 12.438ZM61.98 14.558L62.79 13.058L61.1 12.818L60.32 14.218L61.98 14.558ZM61.76 5.55801L62.73 3.81801L60.79 3.74801L60.08 5.33801L61.76 5.55801ZM61.73 18.628L61.1 17.628L51.31 20.448L51.6 19.058L42.35 22.748L49.1 21.248L48.66 22.818L61.73 18.628ZM60.55 69.358C60.6 64.628 60.54 55.628 60.55 48.538C58.59 47.628 53.54 45.498 54.98 43.128C45.12 43.308 33.84 42.988 26.24 43.288C30.33 53.218 30.79 70.468 26.24 81.178C33.7 81.158 44.13 81.188 49.1 81.188C54.26 77.128 57.04 74.248 60.55 69.358ZM60.55 129.658C60.55 122.219 60.51 112.379 60.51 106.538C56.96 101.188 52.58 96.478 47.37 92.858C41.87 92.938 30.24 92.858 22.4 92.858C16.48 101.748 16 118.968 20.72 129.658C34.03 129.788 47.95 130.218 60.55 129.658ZM60.73 17.128C60.66 16.938 60.42 16.688 60.29 16.378C58.45 16.508 56.53 16.948 54.8 17.098C54.8 17.658 54.8 18.218 54.8 18.778C56.6 18.318 59.04 17.688 60.73 17.128ZM59.98 15.818L59.23 14.498L45.2 15.418L45.73 14.248L36.73 16.058L41.98 16.438L41.42 17.688L59.98 15.818ZM58.98 13.938L58.23 12.628L50.72 10.378L51.66 9.55801L43.66 8.31801L48.8 10.618L47.66 11.378L58.98 13.938ZM57.92 7.49801L58.64 5.81801L56.79 5.43801L55.98 7.37801L57.92 7.49801ZM57.54 11.748L57.08 10.738L55.76 9.17801L55.29 10.998L57.54 11.748ZM56 29.578C55.62 28.038 55.7 26.038 54.08 25.738C40.63 29.708 21.15 29.318 7.03999 26.458C7.65999 28.078 8.15999 29.818 9.19999 31.018C23.54 33.678 43.25 33.318 56 29.578ZM54.56 156.538C55 156.018 54.72 154.778 54.8 153.898C53.55 154.008 52.37 154.188 52.16 155.338C52.56 156.138 53.49 156.408 54.56 156.538ZM54.56 151.738C54.25 150.129 52.48 150.188 50.96 149.578C37.16 148.458 22.69 149.148 11.36 147.179C8.96999 145.979 5.89999 145.439 4.15999 143.578C3.59999 147.898 4.07999 153.259 3.91999 157.978C13.97 165.398 35.3 161.188 50.24 164.218C50.82 160.697 49.53 157.438 50.96 154.138C52.04 153.218 54.43 153.608 54.56 151.738ZM27.44 37.498L36.08 37.738L23.6 34.138L24.08 36.058L11.6 34.138L17.6 43.258L15.75 43.318L20.24 49.018L18.79 49.518L24.8 56.218L23 51.818L24.62 51.518L21.44 46.138L23.36 46.138L18.32 38.458L28.16 39.418L27.44 37.498ZM5.59999 109.978C7.27999 92.058 20.96 86.138 20.48 66.058C20.3 52.078 14.57 42.038 7.03999 34.138C6.87999 34.138 6.71999 34.138 6.55999 34.138C4.93999 34.708 3.39999 34.498 2.23999 35.098C9.89999 42.578 15.66 51.458 16.4 65.338C16.76 83.498 4.36999 90.879 1.75999 106.858C0.489991 117.818 3.16999 128.698 8.95999 135.419C10.78 135.729 11.37 135.208 13.04 134.939C8.49999 127.978 5.07999 121.288 5.59999 109.978ZM15.44 146.698C15.72 143.098 15.81 139.138 15.44 136.379C10.16 135.939 3.83999 136.429 3.91999 142.139C6.52999 144.888 10.65 146.128 15.44 146.698ZM1.75999 33.658C6.62999 35.228 9.33999 29.768 5.59999 27.178C4.45999 29.478 3.10999 31.568 1.75999 33.658Z" fill="#000000" fill-rule="nonzero" opacity="1" stroke="none"/>
<path d="M127.04 157.978C126.35 158.068 125.98 158.058 125.35 157.998C125.29 157.559 125.1 157.498 124.88 156.538C123.75 156.438 122.88 156.618 122 156.778C121.8 157.299 121.74 158.228 121.48 158.688C121.099 158.878 120.849 158.938 119.839 158.938C120.079 155.658 120.9 152.958 121.279 149.818C121.919 149.558 122.039 149.558 122.718 149.339C124.57 151.808 125.98 154.718 127.04 157.978ZM123.679 155.098C123.48 154.178 123.49 153.048 122.48 152.938C122.349 153.938 122.11 154.168 122.24 155.098C122.79 155.248 122.849 154.898 123.679 155.098Z" fill="#000000" fill-rule="nonzero" opacity="1" stroke="none"/>
<path d="M119.12 150.778C119.28 151.898 118.559 152.138 117.44 151.978C117.29 154.688 117.629 156.908 117.679 159.418C117.119 159.418 116.559 159.418 115.999 159.418C115.609 157.088 115.969 154.008 115.039 152.218C112.909 152.947 114.689 158.108 114.079 159.657C113.439 159.657 112.799 159.657 112.159 159.657C112.159 157.258 112.159 154.857 112.159 152.457C111.779 151.878 110.039 152.657 110.479 151.258C112.57 150.468 116.62 150.358 119.12 150.778Z" fill="#000000" fill-rule="nonzero" opacity="1" stroke="none"/>
<path d="M109.76 151.498C110 152.618 108.771 152.269 108.321 152.698C108.321 155.098 108.321 157.498 108.321 159.898C107.76 159.898 107.201 159.898 106.64 159.898C106.321 156.919 107.38 153.738 105.68 152.458C104 153.858 105.76 157.299 105.201 159.898C104.56 159.898 103.921 159.898 103.281 159.898C103.361 158.488 103.22 155.348 103.281 153.178C103.361 152.138 101.621 152.918 101.6 151.978C102.54 150.438 108.15 150.918 109.76 151.498Z" fill="#000000" fill-rule="nonzero" opacity="1" stroke="none"/>
<path d="M97.52 56.938C98.86 55.958 100.429 53.938 102.559 54.538C101.57 56.028 99.219 56.158 97.52 56.938Z" fill="#000000" fill-rule="nonzero" opacity="1" stroke="none"/>
<path d="M97.52 63.418C98.45 62.628 100.9 62.218 102.32 62.698C101.67 63.738 98.78 63.798 97.52 63.418Z" fill="#000000" fill-rule="nonzero" opacity="1" stroke="none"/>
<path d="M101.36 159.898C101.009 160.268 100.13 160.108 99.44 160.138C99.099 159.497 98.969 159.008 98.719 158.457C98.119 158.657 97.099 158.758 96.23 158.687C96.099 159.247 95.99 160.047 95.599 160.617C95.039 160.617 94.48 160.617 93.919 160.617C94.27 157.367 95.599 155.097 95.839 151.737C96.599 151.687 96.959 151.577 97.52 151.497C99.46 153.638 99.96 157.218 101.36 159.898ZM98 157.258C98.21 156.747 97.9 155.058 97.04 154.858C96.97 155.669 96.66 156.238 96.8 157.258C97.2 157.258 97.599 157.258 98 157.258Z" fill="#000000" fill-rule="nonzero" opacity="1" stroke="none"/>
<path d="M96.559 67.738C98.179 68.578 100.65 69.648 100.4 71.578C98.79 70.628 97.24 69.618 96.559 67.738Z" fill="#000000" fill-rule="nonzero" opacity="1" stroke="none"/>
<path d="M98.24 49.498C97.83 51.408 96.15 52.048 94.639 52.858C95.61 51.508 96.2 49.778 98.24 49.498Z" fill="#000000" fill-rule="nonzero" opacity="1" stroke="none"/>
<path d="M96.559 72.858C97.789 78.148 83.289 78.358 83.919 72.858C85.789 71.608 86.359 71.938 86.719 70.138C86.839 65.248 82.969 63.058 84.559 58.138C86.57 55.988 88.379 53.638 89.839 50.938C90.079 50.938 90.319 50.938 90.559 50.938C91.389 51.708 91.379 53.318 91.999 54.298C93.829 56.148 96.369 57.288 96.319 61.018C96.119 64.738 93.989 66.528 93.919 70.378C94.25 71.808 95.52 72.128 96.559 72.858ZM92.719 70.618C92.879 66.618 95.11 64.688 95.36 60.778C94.98 56.438 90.9 55.798 90.08 51.898C89.55 52.408 89.52 53.418 89.36 54.298C83.429 57.738 86.24 64.708 88.16 70.618C89.41 70.108 88.99 67.928 89.84 67.018C88.66 64.838 86.87 63.268 86.481 60.298C86.751 57.288 92.411 56.938 93.441 59.338C94.321 62.598 92.121 64.688 91.041 66.778C91.76 67.898 91.679 69.818 92.719 70.618ZM90.559 66.058C91.53 64.648 94.429 60.178 91.28 59.098C91.36 59.658 91.66 59.998 91.52 60.778C90.94 61.158 90.499 61.668 89.36 61.498C88.53 61.208 89.219 59.398 88.639 58.858C86.25 61.038 89.36 64.438 90.559 66.058ZM91.04 71.098C91.52 69.988 90.97 69.028 90.32 67.978C90.059 68.838 89.95 69.848 89.599 70.618C90.099 70.758 90.29 71.208 91.04 71.098ZM90.32 60.778C90.29 60.008 90.559 58.938 89.599 59.098C89.4 59.688 89.36 60.728 90.32 60.778Z" fill="#000000" fill-rule="nonzero" opacity="1" stroke="none"/>
<path d="M90.08 156.298C90.32 158.247 92.64 159.298 92.48 160.858C91.839 160.858 91.2 160.858 90.559 160.858C90.03 159.708 89.33 158.728 88.639 157.738C87.849 158.188 88.679 159.728 88.4 161.098C87.839 161.098 87.28 161.098 86.719 161.098C86.099 158.818 86.509 155.388 85.999 152.457C86.309 152.128 87.039 152.218 87.679 152.218C88.27 152.827 87.57 154.728 88.159 155.338C89.819 154.598 88.979 151.358 91.999 151.978C91.61 153.668 90.28 154.418 90.08 156.298Z" fill="#000000" fill-rule="nonzero" opacity="1" stroke="none"/>
<path d="M89.84 44.458C90.03 44.588 90.92 48.898 89.6 49.498C89.63 47.818 88.55 45.228 89.84 44.458Z" fill="#000000" fill-rule="nonzero" opacity="1" stroke="none"/>
<path d="M82.88 67.258C81.981 68.998 81.54 70.628 79.28 71.098C79.78 69.118 81.73 68.128 82.88 67.258Z" fill="#000000" fill-rule="nonzero" opacity="1" stroke="none"/>
<path d="M80.96 49.498C82.72 49.208 83.83 51.558 84.56 53.098C83.179 52.078 81.7 51.158 80.96 49.498Z" fill="#000000" fill-rule="nonzero" opacity="1" stroke="none"/>
<path d="M80.02 85.038L80.879 86.728C80.879 86.728 74.759 86.728 72.039 86.728C70.419 80.728 62.979 80.748 61.329 86.728C58.829 86.778 52.629 86.728 52.629 86.728L53.469 85.038L56.949 85.038L56.949 82.348L59.709 82.348L59.709 79.768L62.469 79.768L62.469 76.498L65.029 76.498L66.879 74.058L68.679 76.498L70.869 76.498L70.869 79.768L73.509 79.768L73.509 82.348L76.57 82.348L76.57 85.038L80.02 85.038ZM66.62 79.488L69.13 77.318L67.74 77.318L65.64 78.748L65.64 77.318L64.34 77.318L64.34 81.838L65.64 81.838L65.64 80.188L67.74 81.838L69.13 81.838L66.62 79.488Z" fill="#000000" fill-rule="nonzero" opacity="1" stroke="none"/>
<path d="M80.88 87.938L80.021 89.948L76.571 89.948L76.571 92.728L73.51 92.728L73.51 95.608L70.87 95.608L70.87 98.488L68.68 98.488L66.92 101.188L65.03 98.488L62.47 98.488L62.47 95.608L59.71 95.608L59.71 92.728L56.95 92.728L56.95 89.948L53.47 89.948L52.63 87.938C52.63 87.938 58.61 87.938 61.33 87.938C62.23 93.628 71.37 93.898 72.04 87.938C73.13 87.898 80.88 87.938 80.88 87.938ZM66.96 95.358L69.13 93.018L67.74 93.018L65.62 94.858L65.64 93.018L64.34 93.018L64.34 97.747L65.64 97.747L65.66 95.987L67.74 97.747L69.13 97.747L66.96 95.358Z" fill="#000000" fill-rule="nonzero" opacity="1" stroke="none"/>
<path d="M82.4 64.138C80.78 63.678 79.04 64.128 76.879 62.698C78.469 62.508 81.55 62.798 82.4 64.138Z" fill="#000000" fill-rule="nonzero" opacity="1" stroke="none"/>
<path d="M81.679 57.898C79.95 56.828 77.389 56.588 76.639 54.538C78.58 54.458 80.49 56.428 81.679 57.898Z" fill="#000000" fill-rule="nonzero" opacity="1" stroke="none"/>
<path d="M80 169.498C79.72 169.778 79 169.849 78.42 169.748C78.04 169.188 77.92 168.879 77.36 168.299C77.03 168.089 75.549 168.259 74.96 168.538C74.72 169.148 74.6 169.688 74.231 170.379C73.731 170.439 73.291 170.498 72.56 170.458C73.05 167.269 73.701 164.238 74.481 161.339C74.831 160.969 75.71 161.129 76.401 161.099C77.55 163.948 78.86 166.638 80 169.498ZM75.2 166.618C75.51 166.948 76.33 166.948 76.639 166.618C76.339 165.879 76.419 165.129 75.66 164.688C75.349 165.438 75.349 166.048 75.2 166.618Z" fill="#000000" fill-rule="nonzero" opacity="1" stroke="none"/>
<path d="M88.099 87.388C81.639 91.258 71.799 101.247 66.74 108.818C61.13 100.408 53.18 92.388 45.51 87.388C53.29 82.558 63.23 72.558 66.74 65.878C70.74 72.378 81.8 84.088 88.099 87.388ZM82.849 87.438L80.86 83.748L78.25 83.748L78.25 80.688L75.25 80.688L75.25 77.838L72.49 77.838L72.49 74.838L69.45 74.838L66.88 71.068L64.13 74.838L61.22 74.838L61.22 77.838L58.36 77.838L58.36 80.688L55.41 80.688L55.41 83.748L52.7 83.818L50.98 87.558L52.7 91.318L55.41 91.318L55.41 94.428L58.36 94.428L58.36 97.258L61.22 97.258L61.22 99.987L64.13 99.987L66.88 103.707L69.45 99.987L72.49 99.987L72.49 97.258L75.25 97.258L75.25 94.428L78.25 94.428L78.25 91.318L80.86 91.318L82.849 87.438Z" fill="#000000" fill-rule="nonzero" opacity="1" stroke="none"/>
<path d="M76.639 6.53801C76.82 7.62801 74.849 9.81801 73.52 9.41801C74.54 8.43801 76.13 8.02801 76.639 6.53801Z" fill="#000000" fill-rule="nonzero" opacity="1" stroke="none"/>
<path d="M69.92 162.298C69.95 163.128 69.441 163.418 68.481 163.258C68.31 165.648 68.151 168.048 68.241 170.697C67.451 171.088 67.321 170.647 66.321 170.697C66.321 167.707 66.631 166.277 66.561 163.497C66.341 162.997 65.211 163.407 65.121 162.777C65.121 162.457 65.121 162.137 65.121 161.817C66.66 162.038 69.139 161.318 69.92 162.298Z" fill="#000000" fill-rule="nonzero" opacity="1" stroke="none"/>
<path d="M62.54 87.408C62.79 82.158 70.92 82.368 70.92 87.408C70.62 92.488 62.79 92.278 62.54 87.408ZM68.96 89.658L68.96 85.038L67.73 85.038L67.73 86.658L65.74 86.658L65.74 85.038L64.52 85.038L64.52 89.658L65.74 89.658L65.74 88.088L67.73 88.088L67.73 89.657L68.96 89.657L68.96 89.658Z" fill="#000000" fill-rule="nonzero" opacity="1" stroke="none"/>
<path d="M60.56 161.338C61.29 161.008 61.42 161.447 62.48 161.338C62.47 164.527 62.02 167.277 61.76 170.218C61.07 170.188 60.19 170.348 59.84 169.978C59.73 168.668 60.04 167.938 60.08 166.618C59.58 166.238 58.82 166.118 57.92 166.139C57.48 167.129 57.24 168.339 57.2 169.739C56.56 169.739 55.92 169.739 55.28 169.739C55.5 166.76 55.8 163.859 56 160.859C56.69 160.889 57.57 160.729 57.92 161.099C58.09 162.469 57.73 163.498 57.68 164.458C58.18 164.839 59.27 164.958 60.16 164.938C60.42 164.188 60.53 162.748 60.56 161.338Z" fill="#000000" fill-rule="nonzero" opacity="1" stroke="none"/>
<path d="M53.12 65.578C58.24 69.228 53.08 73.748 49.76 76.618C44.88 76.458 39.37 76.938 34.88 76.378C34.54 75.818 34.62 74.658 34.4 73.978C38.94 70.148 39.31 64.258 38.24 58.618C38.94 56.278 41.24 55.578 42.56 53.818C45.86 53.958 49.73 53.528 52.64 54.058C52.64 58.108 52.91 61.438 53.12 65.578ZM49.77 73.328C51.21 72.468 54.4 69.878 54.08 67.258C52.15 68.688 49.94 70.138 49.77 73.328ZM49.76 67.738C50.69 67.658 52.42 66.438 52.4 64.618C51.16 65.298 49.95 66.008 49.76 67.738ZM50 63.418C51.07 62.568 52.24 61.818 52.16 59.818C50.84 60.188 48.21 62.228 50 63.418ZM52.16 62.698C51.46 62.528 49.38 64.168 50 65.338C51.11 64.848 52.04 64.178 52.16 62.698ZM52.16 57.658C52.16 57.418 52.16 57.268 51.92 57.178C50.48 57.228 47.97 59.948 50.08 60.538C50.75 59.628 52.05 59.148 52.16 57.658ZM49.52 70.858C50.38 69.078 52.4 68.458 52.88 66.298C51.5 67.888 47.9 70.988 44.95 68.658L45.24 59.598C44.84 59.488 43.79 59.628 43.04 59.578C43.31 62.548 42.72 65.058 42.8 68.938C41.78 70.078 37.98 68.438 38.24 70.858C41.91 70.888 46.63 70.808 49.52 70.858ZM49.33 68.668C49.76 66.508 45.07 66.688 45.71 68.728C46.84 69.168 48.54 69.158 49.33 68.668ZM49.2 66.248C49.71 64.388 45.11 64.028 45.68 66.538C46.66 66.878 48.07 67.208 49.2 66.248ZM49.04 73.738C49.04 73.018 49.04 72.298 49.04 71.578C45.58 71.038 41.14 71.478 37.28 71.338C37.42 72.208 36.57 73.328 37.28 73.978C40.72 73.418 45.2 73.898 49.04 73.738ZM48.8 64.138C49.48 61.968 45.16 61.748 45.65 64.238L45.74 64.298C46.29 64.678 48.19 64.518 48.8 64.138ZM48.8 61.738C49.23 59.598 45.06 59.438 45.68 61.738C46.71 62.128 47.79 62.018 48.8 61.738ZM51.44 54.538C46.83 53.858 40.87 53.878 39.92 57.658C43.99 57.798 50.66 58.488 51.44 54.538ZM42.63 61.488C42.96 59.498 38.99 59.328 39.01 61.418C39.35 61.958 42.2 62.058 42.63 61.488ZM42.62 64.208C42.98 61.898 38.82 61.608 39.21 64.088C39.93 64.568 41.6 64.468 42.62 64.208ZM42.52 68.748C42.89 66.688 38.55 66.008 38.72 68.698C39.52 69.338 42.25 68.898 42.52 68.748ZM42.44 66.358C43.02 64.318 38.56 64.238 38.96 66.298C39.64 66.678 41.76 66.738 42.44 66.358Z" fill="#000000" fill-rule="nonzero" opacity="1" stroke="none"/>
<path d="M47.84 161.098C47.28 161.098 46.72 161.098 46.16 161.098C45.97 160.408 45.67 159.827 45.44 159.178C44.64 159.178 43.84 159.178 43.04 159.178C42.54 159.818 42.54 159.997 42.04 160.818C41.48 160.938 41.42 160.818 40.64 160.858C40.85 158.379 42.73 154.818 43.52 152.218C44.16 152.218 44.8 152.218 45.44 152.218C46.35 155.068 47.08 158.098 47.84 161.098ZM44.96 157.738C45.15 156.748 44.73 156.438 44.48 155.438C44.24 155.438 43.45 156.788 43.52 157.738C44 157.738 44.48 157.738 44.96 157.738Z" fill="#000000" fill-rule="nonzero" opacity="1" stroke="none"/>
<path d="M44.72 97.258C46.24 98.668 46.77 103.018 44.96 104.457C43.69 104.447 43.42 103.437 41.84 103.737C41.73 103.878 41.66 103.878 41.6 104.217C41.6 105.727 43.26 105.597 43.76 106.616C41.84 109.096 42.76 114.417 42.56 118.616C43.11 119.746 44.65 119.887 45.2 121.016C44.18 124.995 35.89 124.486 34.16 121.495C34.17 119.905 35.46 119.596 36.56 119.096C36.93 115.825 36.6 113.346 36.8 109.976C36.15 109.426 34.49 109.896 33.44 109.736C33.35 112.226 34.28 113.696 34.64 115.736C33.85 117.236 30.68 117.236 29.6 115.976C29.72 113.616 30.92 112.336 31.04 109.976C30.86 109.196 29.17 109.926 29.36 108.776C29.82 107.636 31.17 107.386 31.52 106.136C31.92 106.136 32.32 106.136 32.72 106.136C33.73 106.086 33.39 107.386 33.92 107.816C34.56 107.816 35.2 107.816 35.84 107.816C36.02 106.686 37.93 106.356 38.24 104.696C37.78 103.636 36.37 103.516 35.6 102.776C35.28 99.976 36.04 98.256 38.24 97.976C38.74 95.336 41.27 96.106 42.08 97.976C43.51 98.288 43.56 97.218 44.72 97.258Z" fill="#000000" fill-rule="nonzero" opacity="1" stroke="none"/>
<path d="M39.92 152.458C40.32 153.658 38.75 152.898 38.48 153.419C38.02 155.439 38.33 158.229 38.24 160.618C37.68 160.698 37.34 160.998 36.56 160.858C36.23 159.058 36.99 155.298 36.32 153.178C35.76 153.098 35.4 153.218 35.12 153.418C34.29 155.067 34.97 158.197 34.4 160.617C33.84 160.617 33.28 160.617 32.72 160.617C32.87 158.287 33.06 155.997 32.96 153.418C33.02 152.707 30.79 153.048 31.76 152.218C33.68 151.498 37.61 151.738 39.92 152.458Z" fill="#000000" fill-rule="nonzero" opacity="1" stroke="none"/>
<path d="M30.32 152.218C30.72 153.418 29.15 152.648 28.88 153.178C28.76 155.537 29.15 158.407 28.64 160.378C28.08 160.378 27.52 160.378 26.96 160.378C26.64 157.907 27.29 154.258 26.48 152.878C24.92 153.817 26.04 158.688 25.16 160.438C24.54 160.498 24.16 160.248 23.6 160.138C23.56 157.698 23.81 155.548 24.08 153.418C24.25 152.128 22.33 152.928 22.64 151.497C24.35 151.658 29.03 150.848 30.32 152.218Z" fill="#000000" fill-rule="nonzero" opacity="1" stroke="none"/>
<path d="M20.96 159.898C20.32 159.898 19.68 159.898 19.04 159.898C18.78 159.098 18.8 158.919 18.48 158.058C17.73 157.768 17.28 157.658 16.16 157.738C15.6 158.419 15.16 158.988 14.79 159.438C14.23 159.318 14.26 159.368 13.52 159.178C14.55 156.128 16.1 153.598 17.36 150.778C17.68 150.488 18.75 150.799 19.28 151.018C20.06 153.848 20.18 156.698 20.96 159.898ZM16.88 156.058C17.38 156.218 17.73 156.558 18.32 156.298C18.23 155.438 18.29 154.678 17.79 154.188C17.35 154.798 17.09 155.388 16.88 156.058Z" fill="#000000" fill-rule="nonzero" opacity="1" stroke="none"/>
<path d="M9.19999 152.218C11.16 152.018 11.32 149.008 13.76 150.058C13.1 151.638 11.5 152.278 10.64 153.658C10.93 155.288 11.61 156.888 12.04 158.379C11.62 159.089 10.79 158.379 10.1 158.189C9.85999 156.829 9.11999 155.819 8.95999 154.379C7.92999 154.788 8.17999 156.479 7.75999 157.498C7.11999 157.498 6.38999 157.589 6.07999 157.259C6.60999 154.269 7.64999 151.788 8.23999 148.859C8.82999 148.829 9.39999 148.819 9.67999 149.099C10.02 149.808 9.16999 151.058 9.19999 152.218Z" fill="#000000" fill-rule="nonzero" opacity="1" stroke="none"/>
</g>
</svg>
