<?xml version="1.0" encoding="UTF-8" standalone="no"?>
<!DOCTYPE svg PUBLIC "-//W3C//DTD SVG 1.1//EN" "http://www.w3.org/Graphics/SVG/1.1/DTD/svg11.dtd">
<!-- Created with Vectornator (http://vectornator.io/) -->
<svg height="100%" stroke-miterlimit="10" style="fill-rule:nonzero;clip-rule:evenodd;stroke-linecap:round;stroke-linejoin:round;" version="1.1" viewBox="0 0 22.2548 24.381" width="100%" xml:space="preserve" xmlns="http://www.w3.org/2000/svg" xmlns:vectornator="http://vectornator.io" xmlns:xlink="http://www.w3.org/1999/xlink">
<defs/>
<clipPath id="Dynamo">
<rect height="24.381" width="22.2548" x="0" y="0"/>
</clipPath>
<g clip-path="url(#Dynamo)" id="Layer-1" vectornator:layerName="Layer 1">
<path d="M19.96 12.5744C25.4191 16.4662 19.9173 21.2856 16.3774 24.3457C11.1742 24.1751 5.29921 24.6869 0.511795 24.0898C0.149273 23.4927 0.234573 22.2558 0 21.5308C4.84072 17.4471 5.23523 11.167 4.09436 5.15337C4.84072 2.65837 7.29307 1.912 8.70051 0.0354217C12.2191 0.184695 16.3454-0.273788 19.4482 0.291319C19.4482 4.60958 19.7361 8.16016 19.96 12.5744ZM16.3881 20.8377C17.9235 19.9208 21.3248 17.1592 20.9836 14.3657C18.9257 15.8904 16.5693 17.4364 16.3881 20.8377ZM16.3774 14.8775C17.369 14.7922 19.2136 13.4914 19.1923 11.5508C17.8702 12.2758 16.58 13.0329 16.3774 14.8775ZM16.6333 10.2713C17.7742 9.36501 19.0217 8.56534 18.9364 6.43286C17.529 6.82736 14.7248 9.00249 16.6333 10.2713ZM18.9364 9.50362C18.19 9.32236 15.9723 11.071 16.6333 12.3185C17.8168 11.796 18.8084 11.0817 18.9364 9.50362ZM18.9364 4.12978C18.9364 3.87388 18.9364 3.71395 18.6805 3.61799C17.1451 3.6713 14.4689 6.57147 16.7186 7.20055C17.433 6.23027 18.8191 5.71847 18.9364 4.12978ZM16.1215 18.2041C17.0385 16.3062 19.1923 15.6452 19.7041 13.3421C18.2327 15.0374 14.3942 18.3427 11.2488 15.8584L11.558 6.19829C11.1315 6.081 10.012 6.23027 9.2123 6.17696C9.50019 9.34369 8.8711 12.0199 8.9564 16.157C7.86884 17.3725 3.81713 15.6238 4.09436 18.2041C8.00745 18.2361 13.0401 18.1508 16.1215 18.2041ZM15.9189 15.8691C16.3774 13.566 11.3768 13.7579 12.0592 15.933C13.264 16.4022 15.0766 16.3915 15.9189 15.8691ZM15.7803 13.2888C16.3241 11.3056 11.4194 10.9217 12.0272 13.598C13.0721 13.9605 14.5755 14.3124 15.7803 13.2888ZM15.6097 21.2749C15.6097 20.5072 15.6097 19.7395 15.6097 18.9718C11.9205 18.3961 7.18645 18.8652 3.07077 18.7159C3.22004 19.6436 2.31374 20.8377 3.07077 21.5308C6.73863 20.9337 11.5154 21.4455 15.6097 21.2749ZM15.3538 11.039C16.0789 8.72526 11.4727 8.49069 11.9952 11.1456L12.0911 11.2096C12.6776 11.6148 14.7034 11.4442 15.3538 11.039ZM15.3538 8.48004C15.8123 6.19828 11.3661 6.02769 12.0272 8.48004C13.1254 8.89587 14.2769 8.77858 15.3538 8.48004ZM18.1687 0.803112C13.2533 0.0780702 6.89856 0.0993949 5.88564 4.12978C10.2252 4.27905 17.337 5.01476 18.1687 0.803112ZM8.77514 8.21348C9.127 6.09166 4.89403 5.9104 4.91536 8.13884C5.27788 8.7146 8.31666 8.82123 8.77514 8.21348ZM8.76448 11.1136C9.14833 8.65063 4.71277 8.34142 5.12861 10.9857C5.8963 11.4975 7.67692 11.3909 8.76448 11.1136ZM8.65786 15.9544C9.05236 13.7579 4.42489 13.0329 4.60615 15.9011C5.45914 16.5834 8.36997 16.1143 8.65786 15.9544ZM8.57256 13.4061C9.19098 11.2309 4.43555 11.1456 4.86205 13.3421C5.58709 13.7472 7.84752 13.8112 8.57256 13.4061Z" fill="#000000" fill-rule="nonzero" opacity="1" stroke="none"/>
</g>
</svg>
