<?xml version="1.0" encoding="UTF-8" standalone="no"?>
<!DOCTYPE svg PUBLIC "-//W3C//DTD SVG 1.1//EN" "http://www.w3.org/Graphics/SVG/1.1/DTD/svg11.dtd">
<!-- Created with Vectornator (http://vectornator.io/) -->
<svg height="100%" stroke-miterlimit="10" style="fill-rule:nonzero;clip-rule:evenodd;stroke-linecap:round;stroke-linejoin:round;" version="1.1" viewBox="0 0 8.8 9.2" width="100%" xml:space="preserve" xmlns="http://www.w3.org/2000/svg" xmlns:vectornator="http://vectornator.io" xmlns:xlink="http://www.w3.org/1999/xlink">
<defs/>
<g id="Layer-1" vectornator:layerName="Layer 1">
<path d="M4.91875 8.38787L4.91722 4.98789L4.23766 4.98562L4.23632 3.80388L4.92 3.80237L4.92 2.9C4.92 2.9 4.91043 1.58282 6.20348 1.57823C7.49652 1.57365 7.37833 1.58 7.37833 1.58L7.38361 2.73711L6.64075 2.74C6.64075 2.74 6.32382 2.77574 6.31922 3.11161C6.31462 3.44748 6.3201 3.79492 6.3201 3.79492L7.38935 3.79L7.26482 4.97593L6.31291 4.98087L6.31 8.39413L7.35916 8.395C7.35916 8.395 8.39229 8.31159 8.39378 7.35652C8.39528 6.40145 8.395 1.43307 8.395 1.43307C8.395 1.43307 8.30728 0.407367 7.3713 0.401129C6.43533 0.394891 1.43789 0.400635 1.43789 0.400635C1.43789 0.400635 0.402418 0.475846 0.401836 1.43597C0.401254 2.3961 0.40132 7.36202 0.40132 7.36202C0.40132 7.36202 0.461298 8.39447 1.41971 8.395C2.37813 8.39553 4.91875 8.38787 4.91875 8.38787Z" fill="#000000" fill-rule="nonzero" opacity="1" stroke="none"/>
</g>
</svg>
