<?xml version="1.0" encoding="UTF-8" standalone="no"?>
<!DOCTYPE svg PUBLIC "-//W3C//DTD SVG 1.1//EN" "http://www.w3.org/Graphics/SVG/1.1/DTD/svg11.dtd">
<!-- Created with Vectornator (http://vectornator.io/) -->
<svg height="100%" stroke-miterlimit="10" style="fill-rule:nonzero;clip-rule:evenodd;stroke-linecap:round;stroke-linejoin:round;" version="1.1" viewBox="0 0 10 10" width="100%" xml:space="preserve" xmlns="http://www.w3.org/2000/svg" xmlns:vectornator="http://vectornator.io" xmlns:xlink="http://www.w3.org/1999/xlink">
<defs/>
<g id="Untitled" vectornator:layerName="Untitled">
<g opacity="1">
<path d="M7.2403 0L2.75958 0C1.23795 0 0 1.23801 0 2.75964L0 7.24036C0 8.76205 1.23795 10 2.75958 10L7.2403 10C8.76205 10 10 8.76199 10 7.24036L10 2.75964C10.0001 1.23801 8.76205 0 7.2403 0ZM9.11281 7.24036C9.11281 8.27282 8.27282 9.11275 7.24036 9.11275L2.75958 9.11275C1.72718 9.11281 0.887248 8.27282 0.887248 7.24036L0.887248 2.75964C0.887248 1.72724 1.72718 0.887248 2.75958 0.887248L7.2403 0.887248C8.27276 0.887248 9.11275 1.72724 9.11275 2.75964L9.11275 7.24036L9.11281 7.24036Z" fill="#000000" fill-rule="nonzero" opacity="1" stroke="none"/>
<path d="M5 2.42337C3.57916 2.42337 2.42325 3.57928 2.42325 5.00012C2.42325 6.4209 3.57916 7.57675 5 7.57675C6.42084 7.57675 7.57675 6.4209 7.57675 5.00012C7.57675 3.57928 6.42084 2.42337 5 2.42337ZM5 6.68944C4.06845 6.68944 3.3105 5.93161 3.3105 5.00006C3.3105 4.06845 4.06839 3.31056 5 3.31056C5.93161 3.31056 6.6895 4.06845 6.6895 5.00006C6.6895 5.93161 5.93155 6.68944 5 6.68944Z" fill="#000000" fill-rule="nonzero" opacity="1" stroke="none"/>
<path d="M7.68481 1.67104C7.51387 1.67104 7.34594 1.74025 7.22522 1.86151C7.1039 1.98217 7.03417 2.15016 7.03417 2.32169C7.03417 2.4927 7.10396 2.66062 7.22522 2.78188C7.34589 2.90254 7.51387 2.97234 7.68481 2.97234C7.85635 2.97234 8.02374 2.90254 8.145 2.78188C8.26626 2.66062 8.33546 2.49264 8.33546 2.32169C8.33546 2.15016 8.26626 1.98217 8.145 1.86151C8.02433 1.74025 7.85635 1.67104 7.68481 1.67104Z" fill="#000000" fill-rule="nonzero" opacity="1" stroke="none"/>
</g>
</g>
</svg>
