<?xml version="1.0" encoding="UTF-8" standalone="no"?>
<!DOCTYPE svg PUBLIC "-//W3C//DTD SVG 1.1//EN" "http://www.w3.org/Graphics/SVG/1.1/DTD/svg11.dtd">
<!-- Created with Vectornator (http://vectornator.io/) -->
<svg height="100%" stroke-miterlimit="10" style="fill-rule:nonzero;clip-rule:evenodd;stroke-linecap:round;stroke-linejoin:round;" version="1.1" viewBox="0 0 25.9119 32.4607" width="100%" xml:space="preserve" xmlns="http://www.w3.org/2000/svg" xmlns:vectornator="http://vectornator.io" xmlns:xlink="http://www.w3.org/1999/xlink">
<defs/>
<clipPath id="Lightbulb">
<rect height="32.4607" width="25.9119" x="0" y="0"/>
</clipPath>
<g clip-path="url(#Lightbulb)" id="Layer-1" vectornator:layerName="Layer 1">
<path d="M20.881 12.48C22.221 11.5 23.79 9.48 25.92 10.08C24.931 11.57 22.58 11.7 20.881 12.48Z" fill="#000000" fill-rule="nonzero" opacity="1" stroke="none"/>
<path d="M20.881 18.96C21.811 18.17 24.261 17.76 25.681 18.24C25.031 19.28 22.141 19.34 20.881 18.96Z" fill="#000000" fill-rule="nonzero" opacity="1" stroke="none"/>
<path d="M19.92 23.28C21.54 24.12 24.011 25.19 23.761 27.12C22.151 26.17 20.601 25.16 19.92 23.28Z" fill="#000000" fill-rule="nonzero" opacity="1" stroke="none"/>
<path d="M21.601 5.04C21.191 6.95 19.511 7.59 18 8.4C18.971 7.05 19.561 5.32 21.601 5.04Z" fill="#000000" fill-rule="nonzero" opacity="1" stroke="none"/>
<path d="M19.92 28.4C21.15 33.69 6.65 33.9 7.28 28.4C9.15 27.15 9.72 27.48 10.08 25.68C10.2 20.79 6.33 18.6 7.92 13.68C9.931 11.53 11.74 9.18 13.2 6.48C13.44 6.48 13.68 6.48 13.92 6.48C14.75 7.25 14.74 8.86 15.36 9.84C17.19 11.69 19.73 12.83 19.68 16.56C19.48 20.28 17.35 22.07 17.28 25.92C17.611 27.35 18.881 27.67 19.92 28.4ZM16.08 26.16C16.24 22.16 18.471 20.23 18.721 16.32C18.341 11.98 14.261 11.34 13.441 7.44C12.911 7.95 12.881 8.96 12.721 9.84C6.78999 13.28 9.60099 20.25 11.521 26.16C12.771 25.65 12.351 23.47 13.201 22.56C12.021 20.38 10.231 18.81 9.84199 15.84C10.112 12.83 15.772 12.48 16.802 14.88C17.682 18.14 15.482 20.23 14.402 22.32C15.121 23.44 15.04 25.36 16.08 26.16ZM13.92 21.6C14.891 20.19 17.79 15.72 14.641 14.64C14.721 15.2 15.021 15.54 14.881 16.32C14.301 16.7 13.86 17.21 12.721 17.04C11.891 16.75 12.58 14.94 12 14.4C9.611 16.58 12.721 19.98 13.92 21.6ZM14.401 26.64C14.881 25.53 14.331 24.57 13.681 23.52C13.42 24.38 13.311 25.39 12.96 26.16C13.46 26.3 13.651 26.75 14.401 26.64ZM13.681 16.32C13.651 15.55 13.92 14.48 12.96 14.64C12.761 15.23 12.721 16.27 13.681 16.32Z" fill="#000000" fill-rule="nonzero" opacity="1" stroke="none"/>
<path d="M13.201 0C13.391 0.13 14.281 4.44 12.961 5.04C12.991 3.36 11.911 0.77 13.201 0Z" fill="#000000" fill-rule="nonzero" opacity="1" stroke="none"/>
<path d="M6.241 22.8C5.342 24.54 4.901 26.17 2.641 26.64C3.141 24.66 5.09099 23.67 6.241 22.8Z" fill="#000000" fill-rule="nonzero" opacity="1" stroke="none"/>
<path d="M4.321 5.04C6.081 4.75 7.191 7.1 7.921 8.64C6.54 7.62 5.061 6.7 4.321 5.04Z" fill="#000000" fill-rule="nonzero" opacity="1" stroke="none"/>
<path d="M5.761 19.68C4.141 19.22 2.401 19.67 0.240001 18.24C1.82999 18.05 4.91099 18.34 5.761 19.68Z" fill="#000000" fill-rule="nonzero" opacity="1" stroke="none"/>
<path d="M5.04 13.44C3.311 12.37 0.75 12.13 0 10.08C1.94099 10 3.851 11.97 5.04 13.44Z" fill="#000000" fill-rule="nonzero" opacity="1" stroke="none"/>
</g>
</svg>
