<?xml version="1.0" encoding="UTF-8" standalone="no"?>
<!DOCTYPE svg PUBLIC "-//W3C//DTD SVG 1.1//EN" "http://www.w3.org/Graphics/SVG/1.1/DTD/svg11.dtd">
<!-- Created with Vectornator (http://vectornator.io/) -->
<svg height="100%" stroke-miterlimit="10" style="fill-rule:nonzero;clip-rule:evenodd;stroke-linecap:round;stroke-linejoin:round;" version="1.1" viewBox="0 0 33.1128 31.3268" width="100%" xml:space="preserve" xmlns="http://www.w3.org/2000/svg" xmlns:vectornator="http://vectornator.io" xmlns:xlink="http://www.w3.org/1999/xlink">
<defs/>
<clipPath id="Radio">
<rect height="31.3268" width="33.1128" x="0" y="0"/>
</clipPath>
<g clip-path="url(#Radio)" id="Layer-1" vectornator:layerName="Layer 1">
<path d="M3.84375 0C2.03374 0.0599844 2.30498 2.39341 2.875 3.59375C1.74501 5.26372 1.04966 7.375 0 9.125C1.40999 11.625 4.69876 12.2325 6.71875 10.5625C6.38873 8.49249 5.53125 6.93123 5.28125 4.78125C10.0713 8.95124 12.5013 15.4763 17.2812 19.6562C19.4813 19.9163 21.1725 19.0275 22.8125 19.4375C21.9756 23.4671 20.8533 27.2347 19.4375 30.6875C19.4339 30.6964 19.4414 30.7102 19.4375 30.7188C19.4413 30.8136 19.4611 30.9414 19.5 31.0938C19.7014 31.1087 19.9013 31.1288 20.125 31.1562C20.1453 31.1566 20.1669 31.1557 20.1875 31.1562C22.4349 31.1931 26.5088 31.2996 27 31.3125C29.6473 31.382 31.3295 31.2798 33.125 31.1875C33.0785 31.0153 33.0726 30.8425 33.0938 30.6562C30.0086 26.6534 27.117 22.4387 24.25 18.2188C24.8 16.2887 25.7249 14.7375 26.4062 12.9375C20.4852 8.93751 13.1287 6.385 6.71875 2.875C5.82876 1.84499 5.72375 0.040329 3.84375 0ZM5.53125 3.34375C9.89127 4.35476 19.4388 10.4375 24.9688 13.1875C24.7377 13.8065 24.4206 13.9257 24 14.375C19.68 12.135 15.6803 9.59648 11.2812 7.4375C13.2903 12.4985 17.0991 13.7487 18.7188 18.4688C18.3587 18.8688 18.4793 18.6775 18 18.9375C13.19 13.8265 9.94124 9.34375 5.53125 3.34375ZM2.875 6.21875C3.724 5.74775 3.42466 9.61349 3.125 10.3125C2.27399 10.2025 1.82784 9.69369 1.21875 9.34375C1.39874 8.04376 2.875 6.33808 2.875 6.21875ZM4.09375 6.21875C5.46375 6.68874 5.23999 8.73282 5.75 10.0625C5.23001 10.2625 4.95274 10.7038 4.09375 10.5625C4.09375 9.1235 4.09375 7.65743 4.09375 6.21875ZM13.6875 9.59375C13.9675 9.55376 20.3335 13.024 22.5625 14.875C22.2325 16.144 20.8449 16.3722 20.1562 17.2812C17.5153 15.2013 15.6785 12.3228 13.6875 9.59375ZM25.4375 22.0625C27.5885 24.4825 30.0781 27.8387 30.9688 30.7188C30.0887 30.7188 29.1925 30.7188 28.3125 30.7188C27.6725 27.5187 26.2491 25.0925 25.4375 22.0625ZM24.25 22.5625C25.87 24.7025 26.635 27.6987 27.375 30.7188C26.355 30.6198 24.8993 30.9401 24.25 30.4688C24.25 27.8288 24.25 25.2028 24.25 22.5625ZM22.8125 23.5C23.8825 24.91 23.0013 28.2688 23.2812 30.4688C22.7912 30.8387 21.1459 30.8387 20.6562 30.4688C21.2963 28.0697 22.1719 25.9 22.8125 23.5Z" fill="#000000" fill-rule="nonzero" opacity="1" stroke="none"/>
</g>
</svg>
