<?xml version="1.0" encoding="UTF-8" standalone="no"?>
<!DOCTYPE svg PUBLIC "-//W3C//DTD SVG 1.1//EN" "http://www.w3.org/Graphics/SVG/1.1/DTD/svg11.dtd">
<!-- Created with Vectornator (http://vectornator.io/) -->
<svg height="100%" stroke-miterlimit="10" style="fill-rule:nonzero;clip-rule:evenodd;stroke-linecap:round;stroke-linejoin:round;" version="1.1" viewBox="0 0 16.7549 27.5846" width="100%" xml:space="preserve" xmlns="http://www.w3.org/2000/svg" xmlns:vectornator="http://vectornator.io" xmlns:xlink="http://www.w3.org/1999/xlink">
<defs/>
<clipPath id="Telephone">
<rect height="27.5846" width="16.7549" x="0" y="0"/>
</clipPath>
<g clip-path="url(#Telephone)" id="Layer-1" vectornator:layerName="Layer 1">
<path d="M15.3749 0.985401C16.8949 2.3954 17.4249 6.7454 15.6149 8.1844C14.3449 8.1744 14.0749 7.1644 12.4949 7.4644C12.3849 7.6054 12.3149 7.6054 12.2549 7.9444C12.2549 9.4544 13.9149 9.3244 14.4149 10.3434C12.4949 12.8234 13.4149 18.1444 13.2149 22.3434C13.7649 23.4734 15.3049 23.6144 15.8549 24.7434C14.8349 28.7224 6.54487 28.2134 4.81487 25.2224C4.82487 23.6324 6.11487 23.3234 7.21487 22.8234C7.58487 19.5524 7.25487 17.0734 7.45487 13.7034C6.80487 13.1534 5.14487 13.6234 4.09487 13.4634C4.00487 15.9534 4.93487 17.4234 5.29487 19.4634C4.50487 20.9634 1.33487 20.9634 0.254872 19.7034C0.374872 17.3434 1.57487 16.0634 1.69487 13.7034C1.51487 12.9234-0.175128 13.6534 0.014872 12.5034C0.474872 11.3634 1.82487 11.1134 2.17487 9.8634C2.57487 9.8634 2.97487 9.8634 3.37487 9.8634C4.38487 9.8134 4.04487 11.1134 4.57487 11.5434C5.21487 11.5434 5.85487 11.5434 6.49487 11.5434C6.67487 10.4134 8.58487 10.0834 8.89487 8.4234C8.43487 7.3634 7.02487 7.2434 6.25487 6.5034C5.93487 3.7034 6.69487 1.9834 8.89487 1.7034C9.39487-0.936599 11.9249-0.166599 12.7349 1.7034C14.1649 2.0154 14.2149 0.9454 15.3749 0.985401Z" fill="#000000" fill-rule="nonzero" opacity="1" stroke="none"/>
</g>
</svg>
