<?xml version="1.0" encoding="UTF-8" standalone="no"?>
<!DOCTYPE svg PUBLIC "-//W3C//DTD SVG 1.1//EN" "http://www.w3.org/Graphics/SVG/1.1/DTD/svg11.dtd">
<!-- Created with Vectornator (http://vectornator.io/) -->
<svg height="100%" stroke-miterlimit="10" style="fill-rule:nonzero;clip-rule:evenodd;stroke-linecap:round;stroke-linejoin:round;" version="1.1" viewBox="0 0 49.1022 49.6409" width="100%" xml:space="preserve" xmlns="http://www.w3.org/2000/svg" xmlns:vectornator="http://vectornator.io" xmlns:xlink="http://www.w3.org/1999/xlink">
<defs/>
<clipPath id="Wheatstone">
<rect height="49.6409" width="49.1022" x="0" y="0"/>
</clipPath>
<g clip-path="url(#Wheatstone)" id="Layer-1" vectornator:layerName="Layer 1">
<path d="M38.6 21.12L40.589 24.81L38.6 28.69L35.99 28.69L35.99 31.8L32.99 31.8L32.99 34.63L30.23 34.63L30.23 37.359L27.19 37.359L24.62 41.079L21.87 37.359L18.96 37.359L18.96 34.63L16.1 34.63L16.1 31.8L13.15 31.8L13.15 28.69L10.44 28.69L8.72 24.93L10.44 21.19L13.15 21.12L13.15 18.06L16.1 18.06L16.1 15.21L18.96 15.21L18.96 12.21L21.87 12.21L24.62 8.44L27.19 12.21L30.23 12.21L30.23 15.21L32.99 15.21L32.99 18.06L35.99 18.06L35.99 21.12C35.99 21.12 38.6 21.12 38.6 21.12ZM38.62 24.1L37.76 22.41L34.31 22.41L34.31 19.72L31.25 19.72L31.25 17.14L28.61 17.14L28.61 13.87L26.42 13.87L24.62 11.43L22.77 13.87L20.21 13.87L20.21 17.14L17.45 17.14L17.45 19.72L14.69 19.72L14.69 22.41L11.21 22.41L10.37 24.1C10.37 24.1 16.57 24.15 19.07 24.1C20.72 18.12 28.16 18.1 29.78 24.1C32.5 24.1 38.62 24.1 38.62 24.1ZM37.76 27.32L38.62 25.31C38.62 25.31 30.87 25.27 29.78 25.31C29.11 31.27 19.97 31 19.07 25.31C16.35 25.31 10.37 25.31 10.37 25.31L11.21 27.32L14.69 27.32L14.69 30.1L17.45 30.1L17.45 32.98L20.21 32.98L20.21 35.86L22.77 35.86L24.66 38.56L26.42 35.86L28.61 35.86L28.61 32.98L31.25 32.98L31.25 30.1L34.311 30.1L34.311 27.32C34.311 27.32 37.76 27.32 37.76 27.32ZM28.66 24.78C28.66 19.74 20.53 19.53 20.28 24.78C20.53 29.65 28.36 29.86 28.66 24.78Z" fill="#000000" fill-rule="nonzero" opacity="1" stroke="none"/>
<path d="M49.089 24.76C40.61 29.39 30.11 39.93 24.48 49.65C18.43 39.61 8.54 29.18 0 24.76C9.32 20.02 19.27 9.9 24.48 0C30.32 10.06 39.74 19.77 49.089 24.76ZM24.48 46.19C29.54 38.62 39.379 28.63 45.839 24.76C39.54 21.46 28.48 9.75001 24.48 3.25001C20.97 9.93001 11.03 19.93 3.25 24.76C10.92 29.76 18.87 37.78 24.48 46.19Z" fill="#000000" fill-rule="nonzero" opacity="1" stroke="none"/>
<path d="M26.87 30.39L24.7 32.73L26.87 35.12L25.48 35.12L23.4 33.36L23.38 35.12L22.08 35.12L22.08 30.39L23.38 30.39L23.36 32.23L25.48 30.39L26.87 30.39Z" fill="#000000" fill-rule="nonzero" opacity="1" stroke="none"/>
<path d="M26.87 14.69L24.36 16.86L26.87 19.21L25.48 19.21L23.38 17.56L23.38 19.21L22.08 19.21L22.08 14.69L23.38 14.69L23.38 16.12L25.48 14.69L26.87 14.69Z" fill="#000000" fill-rule="nonzero" opacity="1" stroke="none"/>
<path d="M26.7 22.41L26.7 27.03L25.47 27.03L25.47 25.46L23.48 25.46L23.48 27.03L22.26 27.03L22.26 22.41L23.48 22.41L23.48 24.03L25.47 24.03L25.47 22.41L26.7 22.41Z" fill="#000000" fill-rule="nonzero" opacity="1" stroke="none"/>
</g>
</svg>
